<svg width="728" height="622" viewBox="0 0 728 622" fill="none" xmlns="http://www.w3.org/2000/svg">
<g clip-path="url(#clip0_27_1542)">
<path d="M95.8294 613.645H3.03685C1.35964 613.645 0 615.141 0 616.987V618.602C0 620.448 1.35964 621.944 3.03685 621.944H95.8294C97.5066 621.944 98.8663 620.448 98.8663 618.602V616.987C98.8663 615.141 97.5066 613.645 95.8294 613.645Z" fill="#ADBEC4"/>
<path d="M711.972 613.645H619.18C617.502 613.645 616.143 615.141 616.143 616.987V618.602C616.143 620.448 617.502 621.944 619.18 621.944H711.972C713.649 621.944 715.009 620.448 715.009 618.602V616.987C715.009 615.141 713.649 613.645 711.972 613.645Z" fill="#ADBEC4"/>
<path d="M225.233 613.645H132.44C130.763 613.645 129.403 615.141 129.403 616.987V618.602C129.403 620.448 130.763 621.944 132.44 621.944H225.233C226.91 621.944 228.27 620.448 228.27 618.602V616.987C228.27 615.141 226.91 613.645 225.233 613.645Z" fill="#ADBEC4"/>
<path d="M400.527 613.645H250.371C248.694 613.645 247.334 615.141 247.334 616.987V618.602C247.334 620.448 248.694 621.944 250.371 621.944H400.527C402.204 621.944 403.563 620.448 403.563 618.602V616.987C403.563 615.141 402.204 613.645 400.527 613.645Z" fill="#ADBEC4"/>
<path d="M569.409 613.645H424.315C422.638 613.645 421.278 615.141 421.278 616.987V618.602C421.278 620.448 422.638 621.944 424.315 621.944H569.409C571.086 621.944 572.446 620.448 572.446 618.602V616.987C572.446 615.141 571.086 613.645 569.409 613.645Z" fill="#ADBEC4"/>
<path d="M44.7092 487.202C44.7092 487.202 70.0162 561.471 71.5346 584.866C71.5346 584.866 77.9458 590.436 88.7434 585.608C88.7434 585.608 89.0809 514.496 78.4519 492.587C67.8229 470.678 44.7092 487.202 44.7092 487.202Z" fill="#FF8B66"/>
<path d="M39.1416 617.73H92.4552C93.826 611.99 93.4102 605.911 91.2742 600.462C91.2742 600.462 93.6362 590.436 92.7926 587.094C91.949 583.752 80.9826 579.667 77.9458 583.009C77.1736 583.998 76.5951 585.151 76.2468 586.397C75.8984 587.643 75.7876 588.955 75.9212 590.25C74.4028 580.967 70.5224 580.224 66.8107 583.937C63.099 587.651 67.6542 585.794 66.9794 591.921C66.8107 592.293 66.8107 592.664 66.642 593.035C65.8945 594.783 64.6511 596.217 63.099 597.12L61.7493 598.048L58.8811 599.162C57.2385 599.747 55.5402 600.121 53.8197 600.276C46.565 601.019 43.5282 601.576 40.1539 605.661C36.7796 609.746 38.9729 613.088 38.9729 613.088L39.1416 617.73Z" fill="#CFD8DC"/>
<path d="M66.642 593.035C66.2952 593.948 65.7779 594.77 65.1235 595.449C66.3617 594.823 67.7488 594.648 69.0836 594.949C70.4184 595.249 71.6315 596.01 72.5469 597.12L73.8966 595.263C73.1895 593.925 72.0357 592.943 70.6807 592.527C69.3257 592.111 67.8766 592.293 66.642 593.035Z" fill="#ADBEC4"/>
<path d="M67.6542 601.39L69.5101 600.091C69.2671 598.932 68.7229 597.876 67.944 597.052C67.1651 596.228 66.1851 595.671 65.1235 595.449C64.5562 596.148 63.868 596.717 63.0989 597.12C64.1286 597.338 65.0893 597.847 65.8876 598.595C66.6859 599.343 67.2945 600.306 67.6542 601.39Z" fill="#ADBEC4"/>
<path d="M62.5928 603.618L64.4487 602.504C64.3471 601.581 64.0499 600.697 63.581 599.923C63.1122 599.149 62.4847 598.507 61.7492 598.048L58.8811 599.162C59.7676 599.544 60.5629 600.145 61.2063 600.917C61.8496 601.689 62.3239 602.613 62.5928 603.618Z" fill="#ADBEC4"/>
<path d="M153.698 603.619C155.32 602.293 156.647 600.579 157.579 598.605C158.171 593.862 158.171 589.052 157.579 584.309C156.566 577.068 159.435 571.126 168.883 568.898C178.33 566.67 183.392 571.497 181.199 591.736C182.548 600.091 182.886 609.56 179.68 617.73H151.674C151.674 617.73 147.287 607.146 153.698 603.619Z" fill="#CFD8DC"/>
<path d="M129.066 495.001C129.638 509.24 133.158 523.148 139.358 535.663C149.818 556.644 162.809 585.423 162.809 585.423C162.809 585.423 171.413 594.706 176.981 579.481C176.981 579.481 173.1 525.822 164.159 506.327C155.217 486.831 129.066 495.001 129.066 495.001Z" fill="#FF8B66"/>
<path d="M174.956 587.465C174.956 587.465 177.487 581.524 175.125 579.11C172.763 576.696 170.232 581.152 166.183 580.224C162.134 579.296 161.29 576.139 160.278 580.224C159.266 584.309 160.616 597.677 174.956 587.465Z" fill="#CFD8DC"/>
<path d="M160.109 587.094C160.109 587.094 170.738 591.364 176.137 587.094L174.787 592.293C174.787 592.293 163.315 593.592 161.628 590.436L160.109 587.094Z" fill="#ADBEC4"/>
<path d="M160.278 593.407C160.278 593.407 169.895 591.921 174.619 594.521V597.12C174.619 597.12 161.965 593.778 157.916 597.12L160.278 593.407Z" fill="#ADBEC4"/>
<path d="M175.125 602.319C174.352 600.732 173.211 599.397 171.819 598.452C170.426 597.506 168.831 596.983 167.195 596.934C163.699 596.698 160.237 597.815 157.41 600.091C160.315 598.907 163.432 598.491 166.509 598.878C169.587 599.265 172.538 600.444 175.125 602.319Z" fill="#ADBEC4"/>
<path d="M172.426 489.616C171.539 491.709 170.465 493.699 169.22 495.558L168.376 496.672C162.471 504.656 149.649 515.239 126.198 504.841L124.848 500.942L124.342 499.642C122.49 494.666 121.077 489.506 120.124 484.232C114.051 446.726 111.689 419.618 108.483 404.207C99.5411 428.159 79.2955 474.577 78.4519 476.433C77.6083 478.29 81.8262 495.001 81.8262 495.001C64.9548 500.942 40.66 493.33 40.66 493.33C40.66 493.33 33.4053 469.749 32.2243 452.853C31.3808 440.042 60.9057 367.816 74.7402 334.766L75.7525 332.167L81.8262 318.056L105.446 326.968L162.809 355.376C162.809 355.376 163.821 356.675 164.665 369.672C164.704 369.985 164.761 370.295 164.833 370.601C165.34 378.399 165.846 390.096 166.183 407.364V408.478C166.183 412.191 166.183 416.276 166.352 420.732V457.495C166.352 461.58 166.183 465.85 166.183 470.306C166.183 474.762 169.051 482.004 170.907 486.274L171.413 487.388C171.662 488.176 172.002 488.925 172.426 489.616Z" fill="#0C476B"/>
<path d="M169.22 495.558L168.376 496.672C165.677 491.844 161.628 483.489 160.784 477.733C159.941 471.977 158.76 437.257 160.784 403.279C162.809 369.301 156.06 338.108 156.06 337.737L157.241 337.365C157.241 337.737 163.99 370.229 161.965 403.465C159.941 436.7 160.616 469.378 161.965 477.547C162.809 482.746 166.689 490.544 169.22 495.558Z" fill="#0E3944"/>
<path d="M160.278 366.145C155.083 364.225 150.327 361.09 146.337 356.956C142.347 352.821 139.218 347.785 137.164 342.193L138.514 341.636C138.514 341.822 143.069 357.789 160.784 364.845L160.278 366.145Z" fill="#0E3944"/>
<path d="M92.6239 329.196C91.7586 329.531 90.838 329.657 89.9244 329.567C86.3815 329.753 79.9703 330.31 74.7402 334.766L75.7525 332.167C80.1129 329.603 84.9808 328.264 89.9244 328.267L91.949 327.896L92.6239 329.196Z" fill="#0E3944"/>
<path d="M107.977 404.579C94.6484 375.242 111.857 335.88 112.026 335.509L113.207 336.251C113.038 336.623 95.9981 375.242 108.989 403.836L107.977 404.579Z" fill="#0E3944"/>
<path d="M105.277 375.985C104.588 375.992 103.903 375.867 103.253 375.614L103.59 374.314C104.38 374.571 105.211 374.637 106.026 374.509C106.841 374.381 107.621 374.061 108.314 373.571C110.339 372.272 111.52 369.487 112.026 365.402C113.207 352.962 121.811 337.737 122.318 337.18L123.33 337.922C123.161 337.922 114.557 353.519 113.207 365.587C112.701 370.044 111.351 373.2 108.989 374.871C107.889 375.663 106.59 376.053 105.277 375.985Z" fill="#0E3944"/>
<path d="M41.1662 53.6591C41.1662 53.6591 43.1907 48.2746 51.9638 48.2746C60.737 48.2746 61.4118 52.3594 61.4118 52.3594C65.461 65.5421 69.8475 115.488 71.3659 117.344L122.824 160.792C95.492 161.349 94.4797 211.294 94.4797 211.294C93.4674 199.04 55.5068 168.404 45.7214 148.352C35.936 128.299 32.393 83.9236 41.1662 53.6591Z" fill="#F2A668"/>
<path d="M204.819 232.09C200.769 282.407 184.235 331.238 178.499 351.476C177.318 355.747 176.475 358.346 176.475 358.346C176.475 358.346 86.7189 345.535 76.0899 318.798L76.5961 316.756C79.1268 304.501 92.4552 255.298 93.9736 215.193C95.6607 170.447 109.327 154.479 117.594 156.521C117.594 156.521 136.152 172.675 147.962 172.675C159.772 172.675 188.285 158.378 188.285 158.378C188.285 158.378 209.88 170.818 204.819 232.09Z" fill="#FFB878"/>
<path d="M148.131 154.293C151.112 154.293 153.53 151.633 153.53 148.352C153.53 145.07 151.112 142.41 148.131 142.41C145.149 142.41 142.732 145.07 142.732 148.352C142.732 151.633 145.149 154.293 148.131 154.293Z" fill="#F24052"/>
<path d="M259.144 57.1869C259.144 57.1869 257.12 51.8024 248.178 51.8024C239.236 51.8024 238.899 56.0728 238.899 56.0728C234.85 69.0699 230.463 119.016 228.945 120.872C227.426 122.729 177.487 164.319 177.487 164.319C176.306 199.226 205.831 214.822 205.831 214.822C206.674 202.568 244.804 171.932 254.42 151.879C264.037 131.827 267.918 87.637 259.144 57.1869Z" fill="#F2A668"/>
<path d="M136.827 171.932C136.827 171.932 131.934 174.16 130.922 176.388C129.91 178.616 133.621 188.457 140.876 189.199C148.131 189.942 161.965 180.844 161.29 177.688C160.616 174.531 150.493 171.004 136.827 171.932Z" fill="#F2A668"/>
<path d="M135.983 160.792C135.983 160.792 138.851 173.046 134.634 177.873C134.634 177.873 141.382 189.942 156.566 177.688C156.566 177.688 153.698 169.704 156.566 164.505L135.983 160.792Z" fill="#EF6E4B"/>
<path d="M179.174 127.371C179.156 125.953 178.693 124.587 177.862 123.503C177.032 122.42 175.885 121.687 174.619 121.429C175.67 120.306 176.276 118.771 176.306 117.159C176.306 115.583 175.737 114.072 174.725 112.958C173.712 111.843 172.339 111.217 170.907 111.217C171.494 110.225 171.788 109.058 171.751 107.875C171.773 107.079 171.65 106.287 171.389 105.544C171.128 104.802 170.734 104.125 170.23 103.553C169.727 102.982 169.124 102.528 168.458 102.217C167.791 101.907 167.075 101.748 166.352 101.748C165.728 101.738 165.109 101.864 164.53 102.119C163.951 102.374 163.423 102.753 162.978 103.233C162.978 101.608 162.391 100.05 161.347 98.9009C160.303 97.7518 158.887 97.1063 157.41 97.1063C156.502 97.1263 155.612 97.3906 154.818 97.8761C154.024 98.3615 153.35 99.0534 152.855 99.8913C152.494 98.6846 151.792 97.6368 150.85 96.9017C149.909 96.1665 148.779 95.7827 147.625 95.8066C146.669 95.7971 145.728 96.0672 144.898 96.5892C144.068 97.1111 143.378 97.8662 142.901 98.7773C141.886 97.747 140.568 97.1537 139.189 97.1063C137.814 97.1033 136.489 97.6781 135.486 98.7132C134.483 99.7484 133.876 101.166 133.79 102.676C132.873 102.07 131.823 101.749 130.753 101.748C130.03 101.748 129.314 101.907 128.647 102.217C127.981 102.528 127.378 102.982 126.875 103.553C126.371 104.125 125.977 104.802 125.716 105.544C125.455 106.287 125.332 107.079 125.354 107.875C125.327 108.317 125.385 108.759 125.523 109.175H125.354C123.878 109.175 122.462 109.82 121.417 110.97C120.373 112.119 119.787 113.677 119.787 115.302C119.858 116.814 120.393 118.254 121.305 119.387C120.07 119.682 118.962 120.431 118.165 121.511C117.368 122.591 116.928 123.937 116.919 125.328C116.932 126.564 117.276 127.768 117.905 128.791C118.535 129.815 119.424 130.612 120.462 131.084C119.754 131.618 119.182 132.342 118.798 133.186C118.415 134.03 118.232 134.968 118.268 135.912C118.258 137.367 118.733 138.776 119.604 139.871C120.475 140.966 121.68 141.671 122.992 141.853C123.754 144.999 125.56 147.715 128.054 149.466C130.416 151.879 150.661 154.479 160.447 153.55C161.214 154.374 162.181 154.936 163.232 155.17C164.283 155.403 165.372 155.298 166.37 154.867C167.367 154.435 168.231 153.696 168.856 152.738C169.481 151.78 169.842 150.644 169.895 149.466C171.237 149.327 172.484 148.64 173.389 147.54C174.295 146.441 174.793 145.008 174.787 143.524C174.787 142.967 174.619 142.41 174.619 142.039C175.568 141.526 176.369 140.734 176.935 139.751C177.5 138.768 177.808 137.632 177.824 136.469C177.88 135.053 177.46 133.665 176.643 132.57C177.429 132.007 178.072 131.236 178.514 130.327C178.957 129.419 179.184 128.402 179.174 127.371Z" fill="#F24052"/>
<path d="M165.846 138.697C165.846 138.697 171.582 132.384 172.426 139.811C173.269 147.238 166.183 151.694 164.833 149.094C163.484 146.495 165.846 138.697 165.846 138.697Z" fill="#FF8B66"/>
<path d="M125.86 139.068C125.86 139.068 120.124 132.941 119.281 140.182C118.437 147.423 125.523 152.251 126.873 149.466C128.222 146.681 125.86 139.068 125.86 139.068Z" fill="#FF8B66"/>
<path d="M146.444 169.518C159.097 169.518 166.352 160.42 166.352 132.941C166.352 118.83 159.772 110.289 145.6 110.289C131.428 110.289 125.354 118.83 125.354 132.941C125.354 162.463 133.284 169.518 146.444 169.518Z" fill="#FF8B66"/>
<path d="M129.572 142.782C129.235 144.267 130.416 145.567 132.103 145.938C133.79 146.309 135.14 145.381 135.308 143.896C135.331 143.505 135.284 143.114 135.169 142.744C135.054 142.374 134.874 142.032 134.639 141.739C134.404 141.446 134.118 141.206 133.799 141.035C133.479 140.863 133.132 140.763 132.778 140.739C132.11 140.608 131.422 140.741 130.835 141.114C130.248 141.488 129.801 142.079 129.572 142.782Z" fill="#DB614D"/>
<path d="M155.723 143.524C155.762 143.91 155.875 144.282 156.052 144.618C156.23 144.953 156.47 145.243 156.756 145.471C157.042 145.698 157.368 145.857 157.713 145.937C158.058 146.018 158.415 146.018 158.76 145.938C160.447 145.752 161.628 144.638 161.628 143.153C161.466 142.381 161.047 141.705 160.453 141.258C159.859 140.811 159.134 140.626 158.422 140.739C156.904 140.925 155.554 142.224 155.723 143.524Z" fill="#DB614D"/>
<path d="M135.14 128.113H135.646C137.158 127.088 138.953 126.693 140.707 126.999C141.045 127.185 141.382 126.814 141.382 126.442C141.382 126.071 141.382 125.7 140.876 125.7C138.775 125.307 136.616 125.769 134.802 126.999C134.634 127.185 134.465 127.742 134.802 127.928C134.835 127.992 134.885 128.044 134.945 128.077C135.005 128.11 135.073 128.123 135.14 128.113Z" fill="#F24052"/>
<path d="M159.435 128.113H159.941C160.109 127.742 160.109 127.371 159.772 127.185C158.01 125.808 155.842 125.212 153.698 125.514C153.536 125.591 153.4 125.722 153.309 125.889C153.219 126.055 153.178 126.249 153.192 126.442C153.192 126.814 153.53 126.999 153.867 126.999C155.643 126.692 157.459 127.158 158.928 128.299L159.435 128.113Z" fill="#F24052"/>
<path d="M136.489 135.912C136.489 137.768 137.164 139.068 138.008 139.068C138.851 139.068 139.695 137.768 139.695 135.912C139.695 134.055 138.851 132.941 138.008 132.941C137.164 132.941 136.489 134.241 136.489 135.912Z" fill="#1A4850"/>
<path d="M153.361 135.912C153.361 137.768 154.204 139.068 155.048 139.068C155.892 139.068 156.566 137.768 156.566 135.912C156.566 134.055 155.892 132.941 155.048 132.941C154.204 132.941 153.361 134.241 153.361 135.912Z" fill="#1A4850"/>
<path d="M160.616 116.973L132.44 114.745C132.44 114.745 125.354 122.915 125.86 142.967C125.86 142.967 114.388 106.761 147.625 106.761C180.861 106.761 165.846 142.039 165.846 142.039C165.846 142.039 166.858 123.657 160.616 116.973Z" fill="#F24052"/>
<path d="M145.6 145.381L146.612 144.267L144.082 141.482C146.444 137.768 146.444 129.042 146.444 128.485H145.094C145.094 128.67 145.094 138.14 142.732 141.11L142.226 141.667L145.6 145.381Z" fill="#DB614D"/>
<path d="M154.036 149.837C154.036 149.837 141.551 150.58 135.308 148.723C135.132 150.054 135.226 151.411 135.584 152.697C135.942 153.983 136.554 155.166 137.377 156.161C138.2 157.155 139.213 157.936 140.343 158.448C141.473 158.96 142.692 159.19 143.913 159.121C154.036 159.678 154.036 149.837 154.036 149.837Z" fill="#1A4850"/>
<path d="M52.8074 46.9749C52.8074 46.9749 43.3594 47.5319 43.5282 50.874C43.6969 54.2161 43.5282 58.1152 51.4577 57.7439C59.3873 57.3725 59.3872 53.8448 59.3872 50.5027C59.3872 47.1606 55.5068 46.7892 52.8074 46.9749Z" fill="#FFB878"/>
<path d="M250.709 48.8316C250.709 48.8316 241.261 48.8316 241.092 52.1737C240.923 55.5158 240.755 59.4149 248.684 59.4149C256.614 59.4149 256.782 56.0728 257.12 52.9164C257.457 49.76 253.239 48.8316 250.709 48.8316Z" fill="#FFB878"/>
<path d="M37.9606 26.1797C39.4152 28.8413 40.6571 31.6369 41.6723 34.5349C42.5159 40.1051 43.022 43.0758 44.8779 45.6752C46.7337 48.2746 45.7214 52.7308 45.7214 52.7308C45.7214 52.7308 52.47 56.4442 58.2063 51.8024C57.945 49.8946 57.945 47.9544 58.2063 46.0466C59.3873 43.6328 63.2677 42.1475 64.4487 37.1343C65.7143 33.2875 67.4757 29.6608 69.6788 26.3654C69.6788 26.3654 68.4978 23.766 66.4732 25.2514C64.4487 26.7367 63.2677 31.0072 62.0867 31.3785H61.4118C61.005 31.4803 60.5829 31.4832 60.1749 31.387C59.767 31.2908 59.383 31.0978 59.0498 30.8215C57.194 28.4078 56.6878 21.5379 56.8566 18.3815C57.0253 15.2251 56.6878 8.16957 54.3258 9.09793C51.9639 10.0263 54.1571 12.6257 52.3013 22.0949H51.4577C51.289 22.652 49.6019 16.1535 49.2644 10.212C48.927 4.27047 46.3963 7.42688 45.8902 8.91225C45.384 10.3976 46.2276 14.2967 46.3963 17.2675C46.4003 19.0685 46.513 20.8673 46.7337 22.652L45.7214 23.3946C41.841 16.1534 43.1907 13.1827 40.9975 12.997C38.8042 12.8114 39.479 19.1242 40.66 21.3523C41.2901 23.0384 41.7978 24.7767 42.1785 26.5511C38.298 21.5379 38.6355 19.1242 36.9483 19.3099C35.2612 19.4955 36.6109 24.5087 37.9606 26.1797Z" fill="#FF8B66"/>
<path d="M54.832 37.6913C56.013 33.6066 60.737 31.7499 61.4118 31.5642C61.005 31.666 60.5829 31.6689 60.1749 31.5727C59.767 31.4765 59.383 31.2835 59.0498 31.0072C57.8057 31.5056 56.7322 32.4158 55.977 33.6126C55.2218 34.8095 54.8218 36.2343 54.832 37.6913Z" fill="#EF6E4B"/>
<path d="M262.519 27.6651C261.078 30.2424 259.89 32.981 258.976 35.8346C257.963 41.4047 257.457 44.5612 255.601 46.9749C253.746 49.3886 254.927 54.0304 254.927 54.0304C254.927 54.0304 248.009 57.9295 242.273 53.1021C242.273 53.1021 242.948 48.646 242.273 47.3462C241.598 46.0465 237.38 43.6328 236.031 38.434C234.793 34.6092 233.091 30.9866 230.969 27.6651C231.058 27.3319 231.223 27.0292 231.447 26.7856C231.672 26.5419 231.949 26.3652 232.253 26.2723C232.557 26.1794 232.878 26.1733 233.184 26.2545C233.491 26.3358 233.774 26.5017 234.006 26.7367C236.031 28.4077 237.38 32.3068 238.393 32.8639H239.236C240.027 32.9415 240.815 32.6749 241.429 32.1212H241.598C243.454 29.7074 243.791 22.6519 243.791 19.6812C243.791 16.7104 243.791 9.28356 246.153 10.2119C248.515 11.1403 246.322 13.7397 248.178 23.2089H249.19C249.359 23.9516 251.046 17.4531 251.384 11.3259C251.721 5.19878 254.083 8.72655 254.758 10.0263C255.433 11.326 254.42 15.4107 254.252 18.5671C254.083 21.7236 253.914 22.6519 253.914 23.7659L254.927 24.5086C258.638 17.2674 257.457 14.2967 259.651 14.111C261.844 13.9254 261 20.0525 259.819 22.4662C259.152 24.0571 258.698 25.7455 258.47 27.4794C262.35 22.6519 261.844 20.0525 263.7 20.4239C265.556 20.7952 263.868 25.994 262.519 27.6651Z" fill="#FF8B66"/>
<path d="M245.816 38.9911C244.466 35.092 239.742 33.2352 239.236 33.0496C240.027 33.1272 240.815 32.8606 241.429 32.3069C242.679 32.8195 243.762 33.7279 244.543 34.9175C245.324 36.1072 245.767 37.5246 245.816 38.9911Z" fill="#EF6E4B"/>
<path d="M178.499 351.476C177.318 355.747 176.475 358.346 176.475 358.346C176.475 358.346 86.7189 345.535 76.0899 318.798L76.5961 316.756C82.1636 327.153 150.999 352.405 178.499 351.476Z" fill="#F2A668"/>
<path d="M506.648 617.73H550.344C553.381 598.605 548.489 579.481 548.489 579.481L528.58 575.582C526.724 587.651 524.531 592.478 521.494 594.892C519.301 596.749 516.602 597.306 513.396 598.605C511.87 599.109 510.469 599.99 509.299 601.181C508.13 602.371 507.223 603.84 506.648 605.475C504.623 611.045 506.648 617.73 506.648 617.73Z" fill="#0E3944"/>
<path d="M506.648 605.475C517.445 606.961 541.065 609.374 539.547 602.69C538.028 596.006 528.412 595.263 521.494 594.892C519.301 596.749 516.602 597.306 513.396 598.605C511.87 599.109 510.469 599.99 509.299 601.181C508.13 602.371 507.223 603.84 506.648 605.475Z" fill="#205260"/>
<path d="M652.922 617.73H696.619C697.524 614.743 697.813 611.571 697.463 608.446C697.248 606.182 696.429 604.038 695.107 602.287C693.786 600.535 692.022 599.254 690.039 598.605C686.159 597.12 683.291 596.563 680.929 594.149C678.567 591.736 676.374 586.537 674.855 575.582L654.778 579.481C654.778 579.481 649.886 598.605 652.922 617.73Z" fill="#0E3944"/>
<path d="M697.463 608.446C697.248 606.182 696.428 604.038 695.107 602.287C693.786 600.535 692.022 599.254 690.039 598.605C686.159 597.12 683.291 596.563 680.929 594.149C675.361 596.006 667.6 599.348 665.238 604.733C662.876 610.117 687.509 610.674 697.463 608.446Z" fill="#205260"/>
<path d="M677.892 578.924C677.892 578.924 674.518 590.807 652.754 582.638C652.754 582.638 636.726 448.954 634.195 445.983C631.664 443.013 606.02 355.933 606.02 355.933H597.922C597.922 355.933 572.277 443.198 569.915 445.983C567.553 448.768 551.188 582.638 551.188 582.638C529.424 590.807 526.05 578.924 526.05 578.924L536.51 434.843L558.443 286.306L601.971 291.69L645.668 286.306L651.404 325.111V326.596L667.263 434.843L677.892 578.924Z" fill="#8B383E"/>
<path d="M651.573 326.596C647.148 325.328 643.063 322.913 639.659 319.554C636.254 316.195 633.629 311.989 632.002 307.287L633.183 306.915C634.716 311.305 637.163 315.237 640.328 318.397C643.492 321.557 647.286 323.857 651.404 325.111L651.573 326.596Z" fill="#662C33"/>
<path d="M605.008 342.75C604.431 343.373 603.744 343.86 602.989 344.179C602.235 344.499 601.429 344.644 600.621 344.607C600.621 348.32 600.621 352.033 600.452 355.933H599.103C599.548 345.341 599.266 334.728 598.259 324.183H599.44C599.44 324.368 600.452 332.724 600.621 343.493C601.284 343.493 601.939 343.344 602.548 343.057C603.157 342.77 603.707 342.35 604.164 341.821C608.213 336.994 605.851 323.069 605.851 322.883H607.032C607.201 323.069 609.563 337.365 605.008 342.75Z" fill="#662C33"/>
<path d="M722.601 25.0657C720.083 26.2723 717.657 27.7004 715.346 29.3361C711.466 33.0495 709.442 35.0919 706.573 36.0203C703.705 36.9487 703.537 42.5188 703.537 42.5188C703.537 42.5188 692.908 47.5319 690.883 39.9194C690.883 39.9194 695.438 28.9648 695.776 27.4794C696.113 25.994 693.92 21.1666 695.607 16.1534C696.709 12.3083 697.278 8.30225 697.294 4.27044C697.294 4.27044 699.656 2.78508 700.5 5.38448C701.343 7.98388 699.994 12.2543 700.668 13.1827L701.006 13.9254H701.175C701.427 14.2373 701.74 14.4828 702.091 14.6435C702.441 14.8042 702.82 14.876 703.199 14.8537H703.368C706.236 14.111 710.285 8.91224 711.972 6.31284C713.659 3.71343 717.709 -1.85673 719.058 0.557006C720.408 2.97074 717.371 3.52776 713.659 12.2543L714.166 12.997C713.997 13.554 718.89 9.65492 722.432 5.01313C725.975 0.371337 726.144 4.64178 725.807 6.12715C725.469 7.61253 722.601 10.3976 720.914 12.6257L717.708 16.5248L718.046 17.8245C725.132 14.4824 725.807 11.326 727.494 12.6257C729.181 13.9254 725.469 18.3815 723.276 19.4955C721.778 20.2962 720.41 21.3626 719.227 22.6519C725.132 21.1666 726.144 18.9385 727.325 20.4239C728.506 21.9093 724.626 24.6943 722.601 25.0657Z" fill="#FF8B66"/>
<path d="M703.03 23.0233C704.211 18.9385 701.512 14.4824 701.174 13.9254C701.427 14.2373 701.74 14.4828 702.091 14.6435C702.441 14.8042 702.82 14.876 703.199 14.8537C703.945 16.0664 704.329 17.5043 704.299 18.9681C704.269 20.432 703.825 21.8492 703.03 23.0233Z" fill="#EF6E4B"/>
<path d="M394.79 93.7642C397.567 93.7672 400.337 94.0782 403.057 94.6925C407.781 96.7349 410.481 97.8489 413.349 97.4776C416.217 97.1062 418.242 102.305 418.242 102.305C418.242 102.305 429.883 102.676 429.208 94.6925C429.208 94.6925 421.278 86.3373 420.604 85.2233C419.929 84.1092 420.266 78.5391 416.892 74.64C414.584 71.492 412.709 67.9889 411.324 64.2424C411.324 64.2424 408.625 63.871 408.794 66.4704C408.962 69.0698 411.493 72.5976 411.324 73.8973C411.156 75.197 411.156 74.4543 410.987 74.64C410.883 75.0582 410.691 75.4438 410.427 75.7662C410.164 76.0885 409.835 76.3387 409.468 76.4967H409.3C406.432 77.0537 400.864 73.7116 398.502 72.0406C396.14 70.3695 390.404 66.8418 389.898 69.6268C389.391 72.4119 392.428 71.4836 399.008 78.1677L398.502 79.0961C399.008 79.6531 393.103 77.7964 388.21 75.0113C383.318 72.2263 384.667 76.311 385.511 77.4251C386.355 78.5391 389.898 80.0245 392.26 81.5098L396.646 83.9236V85.2233C389.054 85.0376 387.536 82.2525 386.186 84.2949C384.836 86.3373 390.066 88.5653 392.597 88.751C394.204 89.0268 395.785 89.4618 397.321 90.0507C391.416 91.1648 389.56 89.4937 388.885 91.3504C388.21 93.2071 392.766 94.1355 394.79 93.7642Z" fill="#FF8B66"/>
<path d="M412.337 83.9236C409.806 80.7672 410.987 75.3827 410.987 74.64C410.883 75.0582 410.691 75.4439 410.427 75.7662C410.164 76.0886 409.835 76.3387 409.468 76.4967C409.199 77.9089 409.33 79.378 409.842 80.706C410.355 82.034 411.226 83.157 412.337 83.9236Z" fill="#EF6E4B"/>
<path d="M706.405 44.9325C706.405 44.9325 705.392 49.5743 703.368 56.6298C702.693 59.6006 701.849 62.9427 700.837 66.4704L695.776 83.9236C694.763 87.2657 693.751 90.6078 692.57 93.7642C690.388 100.838 687.738 107.726 684.641 114.374L683.628 116.416C682.387 118.589 680.975 120.64 679.41 122.543C676.542 126.071 672.662 130.341 668.275 134.798C663.889 139.254 663.72 139.439 661.189 141.667C658.659 143.896 653.091 149.28 649.042 152.993L641.45 159.678C628.796 170.818 618.336 179.359 618.336 179.359L599.44 136.84C604.839 132.941 614.793 126.257 625.253 119.387L632.508 114.374L643.474 107.318L651.066 102.305L658.827 97.2919L662.202 95.0639L664.564 90.2364C666.251 86.7087 668.613 81.3242 671.481 75.3827L675.361 67.2131L681.941 53.6591C683.291 50.874 684.809 48.089 685.99 45.4895C689.702 38.2484 692.739 32.4925 694.257 30.0788C697.186 31.3554 699.807 33.3606 701.914 35.9375C704.022 38.5144 705.559 41.593 706.405 44.9325Z" fill="#CFD8DC"/>
<path d="M649.042 152.993L641.45 159.678C639.654 144.822 634.034 130.841 625.253 119.387L632.508 114.374C640.846 125.538 646.528 138.81 649.042 152.993Z" fill="#8BBDDB"/>
<path d="M668.275 134.798C665.913 137.026 663.72 139.439 661.189 141.667C656.803 123.286 648.705 112.517 643.474 107.318L651.067 102.305C659.026 111.512 664.919 122.639 668.275 134.798Z" fill="#8BBDDB"/>
<path d="M684.641 114.374L683.628 116.416C682.387 118.589 680.975 120.64 679.41 122.543C674.02 112.804 667.042 104.243 658.827 97.2919L662.202 95.0639L664.564 90.2364C672.418 97.0105 679.202 105.166 684.641 114.374Z" fill="#8BBDDB"/>
<path d="M695.776 83.9236C694.763 87.2657 693.751 90.6078 692.57 93.7642C686.313 86.6334 679.221 80.4518 671.481 75.3827L675.361 67.2131C682.682 71.9758 689.525 77.5771 695.776 83.9236Z" fill="#8BBDDB"/>
<path d="M703.368 56.6299C702.693 59.6006 701.849 62.9427 700.837 66.4704C695.224 61.0816 688.839 56.7527 681.941 53.6591C683.291 50.874 684.809 48.089 685.99 45.4896C692.213 48.3224 698.059 52.0699 703.368 56.6299Z" fill="#8BBDDB"/>
<path d="M547.139 147.98L543.765 194.955L517.108 186.6L508.335 183.629L492.307 177.688L484.04 174.346C478.519 172.136 473.112 169.595 467.843 166.733C465.767 165.642 463.79 164.337 461.938 162.834L460.42 161.349C455.987 157.072 451.869 152.416 448.104 147.423C446.248 145.01 444.223 142.596 442.368 139.996C440.512 137.397 434.775 129.784 431.232 124.957L426.002 117.344C419.929 108.804 415.88 102.491 415.88 102.491C416.217 91.3505 423.64 88.3797 423.64 88.3797C429.205 92.57 434.556 97.0949 439.668 101.934L446.248 107.875L457.383 118.087L463.963 124.214L471.893 131.641L474.929 134.426L479.822 135.169L490.62 137.211L499.055 138.697L510.697 140.739L518.964 142.224C530.436 144.267 541.065 146.495 547.139 147.98Z" fill="#CFD8DC"/>
<path d="M517.108 186.6L508.335 183.629C506.997 169.286 507.795 154.799 510.697 140.739L518.964 142.224C515.998 156.784 515.37 171.802 517.108 186.6Z" fill="#8BBDDB"/>
<path d="M499.055 138.697C495.119 151.27 492.846 164.402 492.307 177.688L484.04 174.346C484.667 161.693 486.881 149.196 490.62 137.211L499.055 138.697Z" fill="#8BBDDB"/>
<path d="M479.822 135.169C474.854 145.209 470.84 155.787 467.843 166.733C465.767 165.642 463.79 164.337 461.938 162.834L460.42 161.349C463.494 151.115 467.332 141.179 471.893 131.641L474.929 134.426L479.822 135.169Z" fill="#8BBDDB"/>
<path d="M463.963 124.214C458.089 131.443 452.784 139.207 448.104 147.423C446.248 145.01 444.223 142.596 442.368 139.996C446.96 132.361 451.974 125.044 457.383 118.087L463.963 124.214Z" fill="#8BBDDB"/>
<path d="M446.248 107.875C440.872 113.16 435.853 118.869 431.232 124.957L426.002 117.344C430.215 111.853 434.783 106.703 439.668 101.934L446.248 107.875Z" fill="#8BBDDB"/>
<path d="M660.008 297.632C660.008 297.632 636.388 324.74 604.333 331.424C586.686 335.058 568.799 337.107 550.851 337.551C550.851 337.551 549.501 330.31 547.308 319.355C546.633 316.384 546.127 313.228 545.452 309.886C544.777 306.544 542.921 297.26 541.571 290.205C540.896 287.048 540.39 284.078 539.715 280.921C539.041 277.765 537.522 269.224 536.341 263.282C535.835 260.126 535.16 257.155 534.654 253.999C533.304 246.386 531.955 238.959 530.605 231.904L529.086 222.435C527.568 214.079 526.387 206.281 525.375 200.154C524.362 194.027 524.531 193.099 524.194 190.499C523.856 187.9 524.025 188.828 524.025 188.085C523.688 181.587 523.35 175.645 523.35 170.261V160.606C523.519 150.394 524.025 144.081 524.025 144.081C530.774 139.068 576.664 155.407 576.664 155.407C576.664 155.407 610.575 123.286 615.974 125.514C619.454 127.441 622.375 130.399 624.41 134.055C626.076 136.739 627.597 139.529 628.965 142.41C631.622 148.347 633.877 154.49 635.714 160.792C636.726 163.886 637.738 167.228 638.75 170.818C640.269 176.574 641.619 182.515 643.137 188.642L645.162 198.112L648.705 216.307C649.211 219.65 649.717 222.806 650.392 225.962L652.922 242.116L654.441 252.142C655.453 259.198 656.297 265.882 657.14 271.823C657.984 277.765 657.984 278.693 658.321 281.664C659.502 291.505 660.008 297.632 660.008 297.632Z" fill="#CFD8DC"/>
<path d="M628.965 142.41C618.674 153.922 600.621 170.818 579.869 175.46C575.307 176.384 570.674 176.82 566.035 176.759C552.538 176.759 537.016 173.789 523.35 170.261V160.606C541.571 165.433 563.504 169.518 578.182 166.362C597.753 162.091 615.299 144.638 624.41 134.055C626.076 136.739 627.597 139.529 628.965 142.41Z" fill="#8BBDDB"/>
<path d="M638.75 170.818C628.121 181.587 601.971 201.825 551.863 201.825C543.013 201.777 534.172 201.219 525.375 200.154C524.869 196.441 524.531 193.098 524.194 190.499C597.078 200.525 628.628 169.333 635.714 160.792C636.726 163.886 637.738 167.228 638.75 170.818Z" fill="#8BBDDB"/>
<path d="M645.162 198.112C624.916 210.737 583.412 231.904 534.485 231.904H530.605L529.086 222.435C579.869 224.106 623.735 200.711 643.137 188.642L645.162 198.112Z" fill="#8BBDDB"/>
<path d="M650.392 225.962C632.677 236.546 587.968 260.312 536.341 263.282C535.835 260.126 535.16 257.155 534.654 253.999C587.124 251.399 633.689 225.591 648.705 216.307C649.211 219.65 649.717 222.806 650.392 225.962Z" fill="#8BBDDB"/>
<path d="M654.441 252.142C634.195 265.139 590.498 289.276 541.571 290.205C540.896 287.048 540.39 284.078 539.715 280.921C589.317 280.364 634.87 253.999 652.922 242.116L654.441 252.142Z" fill="#8BBDDB"/>
<path d="M658.321 281.664C637.569 294.475 591.679 319.355 550.176 319.355H547.308C546.633 316.384 546.127 313.228 545.452 309.886C587.63 312.114 637.907 283.706 657.14 271.823C657.478 275.351 657.984 278.693 658.321 281.664Z" fill="#8BBDDB"/>
<path d="M582.906 136.469C582.906 136.469 581.556 149.094 585.774 152.993C585.774 152.993 583.581 161.906 577.339 163.577C571.096 165.248 565.866 157.078 565.866 157.078C565.866 157.078 567.722 144.824 563.167 141.667L582.906 136.469Z" fill="#EF6E4B"/>
<path d="M588.474 109.918C588.474 109.918 593.029 101.562 582.231 88.3797C582.231 88.3797 577.17 75.754 559.792 72.7833C542.415 69.8126 529.424 90.7935 529.424 102.305C529.424 113.817 535.666 102.305 535.666 102.305C535.666 102.305 537.016 110.289 539.041 114.002C539.041 114.002 538.366 125.514 544.946 125.514C551.525 125.514 588.474 109.918 588.474 109.918Z" fill="#105E99"/>
<path d="M548.489 123.843C548.489 123.843 541.571 119.944 542.921 126.814C544.271 133.684 551.863 135.54 552.369 132.755C552.875 129.97 548.489 123.843 548.489 123.843Z" fill="#FF8B66"/>
<path d="M584.931 110.66C584.931 110.66 588.474 103.048 591.004 109.546C593.535 116.045 588.811 122.543 586.787 120.501C584.762 118.459 584.931 110.66 584.931 110.66Z" fill="#FF8B66"/>
<path d="M574.639 145.195C563.167 149.466 554.056 143.524 546.464 118.83C542.584 106.019 546.127 95.8066 559.117 91.1648C572.108 86.523 579.701 92.2788 583.75 105.09C591.848 131.641 586.618 140.925 574.639 145.195Z" fill="#FF8B66"/>
<path d="M582.569 115.302C583.244 116.416 582.569 118.087 581.219 119.016C580.649 119.394 579.972 119.528 579.318 119.391C578.664 119.254 578.079 118.856 577.676 118.273C577.001 116.973 577.676 115.488 579.026 114.559C579.596 114.181 580.272 114.047 580.926 114.184C581.58 114.321 582.165 114.719 582.569 115.302Z" fill="#DB614D"/>
<path d="M559.117 124.771C559.165 125.138 559.145 125.51 559.06 125.868C558.975 126.226 558.827 126.562 558.622 126.856C558.418 127.15 558.163 127.396 557.871 127.58C557.58 127.764 557.258 127.882 556.924 127.928C555.406 128.299 553.887 127.556 553.719 126.257C553.55 124.957 554.225 123.657 555.743 123.1C556.393 122.853 557.104 122.889 557.731 123.199C558.359 123.51 558.854 124.072 559.117 124.771Z" fill="#DB614D"/>
<path d="M573.29 104.347H572.952C571.343 103.602 569.541 103.535 567.891 104.162C567.553 104.347 567.216 104.162 567.216 103.79C567.157 103.617 567.159 103.426 567.221 103.254C567.284 103.083 567.402 102.943 567.553 102.862C569.475 102.122 571.578 102.188 573.458 103.048C573.796 103.233 573.796 103.79 573.796 103.976L573.29 104.347Z" fill="#FFB878"/>
<path d="M551.694 112.331H551.188C550.851 112.146 550.851 111.774 550.851 111.403C551.891 109.425 553.582 107.963 555.575 107.318C555.641 107.289 555.712 107.276 555.783 107.28C555.854 107.283 555.924 107.303 555.987 107.338C556.051 107.373 556.107 107.422 556.153 107.483C556.198 107.544 556.231 107.614 556.249 107.69C556.308 107.863 556.306 108.054 556.244 108.226C556.182 108.397 556.063 108.537 555.912 108.618C554.282 109.154 552.896 110.348 552.032 111.96C552.032 112.058 551.996 112.153 551.933 112.223C551.869 112.292 551.784 112.331 551.694 112.331Z" fill="#FFB878"/>
<path d="M574.47 111.403C574.977 113.074 574.639 114.559 573.796 114.745C572.952 114.931 572.108 114.002 571.602 112.517C571.096 111.032 571.265 109.361 572.108 109.175C572.952 108.989 573.964 109.918 574.47 111.403Z" fill="#1A4850"/>
<path d="M559.117 117.159C559.455 118.644 559.286 120.13 558.443 120.501C557.599 120.872 556.587 119.758 556.081 118.273C555.575 116.787 555.912 115.116 556.755 114.745C557.599 114.374 558.611 115.488 559.117 117.159Z" fill="#1A4850"/>
<path d="M564.179 134.055C564.179 134.055 574.808 131.641 579.194 126.999C579.194 126.999 578.52 135.726 572.783 137.026C571.24 137.455 569.618 137.405 568.099 136.88C566.58 136.356 565.223 135.378 564.179 134.055Z" fill="#1A4850"/>
<path d="M571.265 126.999C570.384 127.256 569.476 127.381 568.565 127.371V126.071C569.746 125.885 571.771 125.514 571.94 124.771C572.108 124.029 571.94 124.214 571.434 123.657C570.927 123.1 565.36 110.66 565.191 110.289L566.372 109.732C566.372 109.732 569.746 119.573 572.446 122.729C572.78 123.044 573.033 123.45 573.181 123.906C573.329 124.361 573.366 124.852 573.289 125.328C572.803 126.119 572.09 126.707 571.265 126.999Z" fill="#DB614D"/>
<path d="M555.743 85.4089C529.93 95.9922 545.452 122.729 545.452 122.729L549.163 126.442C547.476 118.83 548.657 114.559 548.657 114.559C546.996 111.149 546.516 107.19 547.308 103.419C550.513 100.448 558.443 94.6925 573.29 93.0215C575.554 95.375 577.138 98.41 577.845 101.748C581.4 105.434 584.265 109.849 586.28 114.745L586.618 108.061C586.618 108.061 580.713 75.197 555.743 85.4089Z" fill="#FFB878"/>
<path d="M552.706 581.895L541.403 584.68C541.403 584.68 523.688 479.961 519.638 469.007C515.589 458.052 501.08 422.96 496.019 394.924C494.711 394.893 493.409 394.706 492.138 394.367L490.451 393.81L488.933 393.438C488.426 421.475 482.859 455.824 481.172 465.479C479.485 475.134 480.328 583.752 480.328 583.752L468.687 583.38C446.585 497.043 458.227 464.736 458.227 464.736C458.227 464.736 437.981 387.125 445.067 359.646C447.286 351.354 449.991 343.23 453.165 335.323L454.009 333.652C456.962 326.387 460.402 319.374 464.3 312.671L487.92 315.827L488.258 315.456H488.933V323.626H492.644L502.43 323.069H503.779L512.384 322.512C512.384 322.512 517.445 331.61 524.869 346.092L525.712 347.763L534.148 365.216C546.127 390.653 542.077 463.436 542.077 463.436C542.077 463.436 559.118 492.401 552.706 581.895Z" fill="#8BBDDB"/>
<path d="M472.061 315.642C472.061 315.827 465.819 331.795 453.165 335.323L454.009 333.652C465.313 329.753 470.88 315.27 470.88 315.085L472.061 315.642Z" fill="#6097B2"/>
<path d="M525.712 347.577C511.54 344.235 504.286 328.082 502.43 323.069L501.924 321.583L503.105 321.026C503.274 321.668 503.5 322.29 503.779 322.883C505.804 328.082 512.384 342.379 524.869 345.906L525.712 347.577Z" fill="#6097B2"/>
<path d="M492.138 394.367L490.451 393.81C486.376 384.949 483.424 375.516 481.678 365.773C477.123 344.235 487.245 321.212 487.414 321.026L488.426 321.583C488.426 321.769 478.472 344.421 482.859 365.402L483.365 368.001C483.534 368.558 483.534 368.93 483.702 369.487C485.574 378.13 488.407 386.486 492.138 394.367Z" fill="#6097B2"/>
<path d="M483.028 369.487H482.859V368.001C483.534 368.187 484.209 367.63 484.883 366.887C485.558 366.144 487.583 362.617 486.064 354.447C484.04 343.307 491.463 324.183 491.801 323.254L492.982 323.811C492.982 323.997 485.39 343.493 487.246 354.076C489.101 364.659 487.077 366.33 485.896 367.816C485.548 368.297 485.114 368.694 484.62 368.981C484.127 369.269 483.585 369.441 483.028 369.487Z" fill="#6097B2"/>
<path d="M483.365 214.265C483.365 214.265 487.077 206.653 481.847 193.841C476.616 181.03 477.629 145.567 504.117 147.052C504.117 147.052 519.807 144.081 527.568 155.407C535.329 166.733 541.909 206.653 533.642 236.174C525.375 265.696 472.736 257.898 483.365 214.265Z" fill="#F24052"/>
<path d="M512.384 322.326C504.239 324.948 495.651 325.44 487.303 323.764C478.955 322.088 471.079 318.289 464.3 312.671C464.3 312.671 459.914 214.451 468.181 207.952C471.724 204.981 478.978 207.395 485.727 210.923C491.777 214.056 497.588 217.719 503.105 221.878C503.105 221.878 518.457 219.464 530.605 220.949C538.366 221.878 544.608 224.477 544.946 230.047C545.789 244.53 512.384 322.326 512.384 322.326Z" fill="#FF8B66"/>
<path d="M531.28 221.135C526.05 220.578 525.037 225.034 519.807 227.076C515.388 228.896 510.807 230.203 506.141 230.976C503.779 231.161 502.43 234.503 502.43 234.503C502.43 234.503 501.586 230.047 500.405 229.676C499.224 229.304 488.089 217.236 485.727 210.923C491.777 214.056 497.588 217.719 503.105 221.878C503.105 221.878 518.457 219.464 530.605 220.949L531.28 221.135Z" fill="#EF6E4B"/>
<path d="M463.457 594.335C464.132 588.95 462.276 585.237 463.626 582.638C464.975 580.038 467.675 583.566 467.675 583.566C467.843 577.625 476.954 577.624 477.966 580.41C478.177 581.123 478.46 581.808 478.81 582.452C479.316 580.967 480.328 579.481 481.509 580.41C486.571 583.566 480.328 591.921 484.883 598.048C489.439 604.176 487.077 617.73 487.077 617.73H459.745C456.54 601.205 462.613 599.534 463.457 594.335Z" fill="#CFD8DC"/>
<path d="M480.328 592.292C480.328 592.292 473.748 588.579 465.313 593.592L467 590.064C468.89 588.907 470.989 588.223 473.148 588.063C475.306 587.902 477.47 588.269 479.485 589.136L480.328 592.292Z" fill="#ADBEC4"/>
<path d="M481.34 598.048C475.494 596.043 469.178 596.507 463.625 599.348L465.313 595.82C465.313 595.82 473.411 591.921 480.328 594.892L481.34 598.048Z" fill="#ADBEC4"/>
<path d="M557.768 594.335C557.093 588.95 558.78 585.237 557.599 582.638C556.418 580.038 553.55 583.566 553.55 583.566C553.381 577.625 544.102 577.624 543.258 580.41L542.415 582.452C541.909 580.967 540.896 579.481 539.547 580.41C534.654 583.566 540.728 591.921 536.341 598.048C531.955 604.176 534.148 617.73 534.148 617.73H561.48C564.685 601.205 558.443 599.534 557.768 594.335Z" fill="#CFD8DC"/>
<path d="M540.896 592.293C540.896 592.293 547.308 588.579 555.912 593.592L554.225 590.064C552.331 588.919 550.232 588.242 548.076 588.082C545.919 587.922 543.757 588.281 541.74 589.136L540.896 592.293Z" fill="#ADBEC4"/>
<path d="M539.715 598.048C545.619 596.049 551.985 596.512 557.599 599.348L555.912 595.82C555.912 595.82 547.814 591.921 540.896 594.892L539.715 598.048Z" fill="#ADBEC4"/>
<path d="M501.08 189.571C501.08 189.571 503.105 215.75 496.525 219.464C496.525 219.464 501.417 229.304 514.408 223.363C514.408 223.363 512.215 209.809 520.988 193.841C526.724 183.072 501.08 189.571 501.08 189.571Z" fill="#EF6E4B"/>
<path d="M525.037 180.473C525.037 180.473 529.93 174.16 531.111 181.03C532.292 187.9 526.05 192.541 524.531 190.128C523.013 187.714 525.037 180.473 525.037 180.473Z" fill="#FF8B66"/>
<path d="M487.752 184.001C487.752 184.001 482.015 178.616 481.847 185.486C481.678 192.356 488.426 196.069 489.439 193.47C490.451 190.87 487.752 184.001 487.752 184.001Z" fill="#FF8B66"/>
<path d="M508.841 210.737C520.651 209.809 526.893 200.711 525.037 175.088C524.194 162.091 517.445 154.479 504.285 155.593C491.126 156.707 485.896 165.248 486.908 178.43C488.764 205.724 496.693 211.666 508.841 210.737Z" fill="#FF8B66"/>
<path d="M491.463 187.157C491.462 187.515 491.529 187.869 491.658 188.197C491.787 188.525 491.976 188.82 492.214 189.064C492.451 189.308 492.732 189.495 493.038 189.615C493.345 189.734 493.67 189.782 493.994 189.756C494.305 189.838 494.627 189.849 494.942 189.79C495.256 189.73 495.557 189.601 495.825 189.41C496.093 189.219 496.323 188.971 496.501 188.679C496.68 188.388 496.802 188.059 496.862 187.714C496.863 187.357 496.797 187.003 496.668 186.674C496.539 186.346 496.349 186.051 496.112 185.807C495.874 185.563 495.594 185.376 495.287 185.257C494.981 185.137 494.656 185.089 494.331 185.115C494.021 185.033 493.698 185.022 493.384 185.081C493.069 185.141 492.769 185.27 492.5 185.461C492.232 185.652 492.002 185.9 491.824 186.192C491.646 186.484 491.523 186.812 491.463 187.157Z" fill="#DB614D"/>
<path d="M515.758 185.857C515.835 186.206 515.977 186.534 516.174 186.82C516.372 187.106 516.621 187.344 516.907 187.518C517.192 187.693 517.507 187.8 517.832 187.834C518.157 187.868 518.485 187.827 518.795 187.714C520.313 187.528 521.494 186.229 521.326 184.929C521.13 184.251 520.707 183.682 520.142 183.337C519.578 182.991 518.915 182.897 518.289 183.072C516.77 183.258 515.589 184.558 515.758 185.857Z" fill="#DB614D"/>
<path d="M495.681 173.417C495.85 173.603 496.187 173.417 496.356 173.232C497.518 171.919 499.081 171.125 500.743 171.004C500.922 171.004 501.093 170.925 501.22 170.786C501.346 170.647 501.417 170.458 501.417 170.261C501.249 169.89 501.08 169.704 500.743 169.704C498.71 169.793 496.783 170.721 495.344 172.303C495.175 172.675 495.175 173.046 495.512 173.232C495.85 173.417 495.512 173.417 495.681 173.417Z" fill="#F24052"/>
<path d="M512.721 169.89H513.059C514.723 169.695 516.397 170.156 517.783 171.189C517.951 171.561 518.458 171.375 518.626 171.189C518.7 171.048 518.739 170.888 518.739 170.725C518.739 170.562 518.7 170.402 518.626 170.261C517.843 169.531 516.921 169.003 515.929 168.714C514.937 168.425 513.899 168.383 512.89 168.59C512.756 168.59 512.627 168.649 512.532 168.753C512.437 168.857 512.384 168.999 512.384 169.147C512.384 169.704 512.553 169.89 512.721 169.89Z" fill="#F24052"/>
<path d="M497.368 180.287C497.537 181.958 498.212 183.072 499.055 183.072C499.899 183.072 500.574 181.587 500.405 180.101C500.236 178.616 499.562 177.131 498.718 177.131C497.874 177.131 497.368 178.616 497.368 180.287Z" fill="#1A4850"/>
<path d="M513.734 178.802C513.902 180.473 514.577 181.587 515.421 181.587C516.264 181.587 516.77 180.102 516.77 178.616C516.77 177.131 515.927 175.645 515.083 175.645C514.24 175.645 513.734 177.131 513.734 178.802Z" fill="#1A4850"/>
<path d="M512.89 194.77C512.89 194.77 505.467 196.441 501.586 194.584C501.586 194.584 504.117 200.525 508.166 199.597C509.278 199.342 510.306 198.757 511.138 197.906C511.97 197.056 512.576 195.971 512.89 194.77Z" fill="#1A4850"/>
<path d="M501.417 179.173C501.417 179.173 500.068 175.274 498.549 175.645C497.031 176.017 496.356 179.544 496.356 179.544L494.163 178.43H496.356C496.356 178.43 497.2 174.717 498.549 174.717C499.899 174.717 501.417 179.173 501.417 179.173Z" fill="#1A4850"/>
<path d="M512.89 178.616C512.89 178.616 513.734 174.531 515.083 174.717C516.433 174.903 517.951 178.245 517.951 178.245L519.807 176.759L517.783 177.316C517.783 177.316 516.433 173.789 515.083 173.974C513.734 174.16 512.89 178.616 512.89 178.616Z" fill="#1A4850"/>
<path d="M506.479 188.642H507.322V187.343C506.964 187.343 506.621 187.186 506.368 186.908C506.115 186.629 505.973 186.251 505.973 185.857C505.959 185.54 506.014 185.224 506.131 184.934C506.248 184.644 506.425 184.388 506.648 184.186C506.816 184.001 507.154 184.186 507.322 184.558L508.335 183.815C508.123 183.405 507.788 183.089 507.389 182.92C506.989 182.751 506.548 182.739 506.141 182.887C505.656 183.216 505.259 183.683 504.992 184.238C504.725 184.793 504.598 185.416 504.623 186.043C504.684 186.623 504.889 187.173 505.217 187.631C505.545 188.09 505.981 188.44 506.479 188.642Z" fill="#DB614D"/>
<path d="M508.503 159.678C508.503 159.678 512.89 158.192 514.746 165.433C517.951 178.245 520.145 198.854 527.568 209.252C533.136 216.679 536.341 213.522 536.341 213.522C537.195 208.633 536.905 203.586 535.498 198.854C533.304 191.613 536.172 165.062 527.568 155.407C518.964 145.752 504.117 152.065 504.117 152.065C504.117 152.065 496.862 147.238 489.776 152.065C482.69 156.893 480.666 178.059 487.92 187.343C487.92 187.343 487.414 179.359 490.62 176.388C493.825 173.417 495.512 155.779 508.503 159.678Z" fill="#F24052"/>
<path d="M452.997 55.1445C450.297 64.7994 457.046 69.0699 451.984 75.754C446.923 82.4382 444.223 76.4967 444.223 76.4967C441.517 70.986 438.044 65.9743 433.932 61.643C431.232 58.6722 433.257 58.6723 433.257 58.6723L432.413 57.9296C430.389 56.2585 428.533 55.3302 430.558 54.5875C432.582 53.8448 438.656 58.4866 438.656 58.4866C431.57 49.76 428.87 50.5027 430.726 49.76C432.582 49.0173 440.512 54.9588 440.849 55.1445C437.306 49.203 434.269 47.1606 436.294 46.9749C438.318 46.7893 445.573 56.4442 448.273 60.1576L449.285 61.4573C450.972 53.4734 452.997 55.1445 452.997 55.1445Z" fill="#FF8B66"/>
<path d="M448.273 60.1576L449.285 61.4573C448.592 62.3713 448.12 63.4635 447.913 64.6322C447.707 65.801 447.772 67.0082 448.104 68.1415C447.226 67.0255 446.756 65.5896 446.788 64.1137C446.819 62.6378 447.348 61.2275 448.273 60.1576Z" fill="#EF6E4B"/>
<path d="M439.331 63.4997C438.656 62.9427 434.944 59.0436 433.257 58.6722L432.413 57.9296C433.932 56.6298 438.656 62.5713 439.331 63.4997Z" fill="#EF6E4B"/>
<path d="M451.984 75.754C451.984 75.754 450.972 139.439 448.104 152.065C448.104 152.065 458.564 191.984 474.254 206.467C474.254 206.467 476.785 217.236 463.119 238.588C463.119 238.588 436.631 186.414 432.413 156.707L444.223 76.4967L451.984 75.754Z" fill="#FF8B66"/>
<path d="M486.739 211.48C488.089 216.679 488.933 235.246 504.792 244.715C520.651 254.184 537.86 240.259 542.584 225.034C542.584 225.034 544.439 221.878 550.851 229.676C550.851 229.676 583.918 247.5 588.305 256.598C592.692 265.696 589.992 300.974 576.664 301.531C563.335 302.088 547.308 285.749 543.09 296.518C538.872 307.287 514.24 345.164 463.119 314.528C463.119 314.528 456.708 305.801 456.708 297.817C456.708 289.833 453.503 237.845 453.503 237.845C453.503 237.845 434.607 231.904 439.331 182.887C439.331 182.887 452.322 190.87 451.984 164.691C451.984 164.691 462.613 159.306 466.156 181.216C468.518 195.884 481.847 206.653 481.847 206.653C481.847 206.653 484.715 203.31 486.739 211.48Z" fill="#105E99"/>
<path d="M595.728 274.794C607.032 269.595 631.833 247.129 640.775 233.946L635.376 228.562C635.376 228.562 606.189 250.471 595.054 254.37C583.918 258.269 577.845 265.325 579.194 274.051C580.544 282.778 593.366 275.908 595.728 274.794Z" fill="#FF8B66"/>
<path d="M650.054 215.565C644.487 223.734 637.401 220.207 635.376 228.562C634.195 233.761 639.425 235.803 639.425 235.803C645.102 235.133 650.835 235.32 656.465 236.36C660.177 237.103 658.996 235.246 658.996 235.246L660.008 235.617C662.539 236.546 664.226 237.474 663.551 235.432C662.876 233.389 655.959 230.233 655.959 230.233C666.588 231.533 667.6 234.503 667.094 232.275C666.588 230.047 657.478 226.705 657.14 226.519C663.72 226.148 666.926 227.633 665.913 225.777C664.901 223.92 653.428 222.992 649.211 222.806H647.692C652.416 216.493 650.054 215.565 650.054 215.565Z" fill="#FF8B66"/>
<path d="M649.211 222.806H647.692C647.433 223.996 646.89 225.088 646.119 225.969C645.347 226.85 644.376 227.489 643.306 227.819C644.679 227.935 646.043 227.487 647.134 226.561C648.224 225.635 648.964 224.297 649.211 222.806Z" fill="#EF6E4B"/>
<path d="M651.741 232.647C652.754 232.832 657.815 233.946 658.996 235.246L660.008 235.617C660.177 233.389 652.922 232.832 651.741 232.647Z" fill="#EF6E4B"/>
<path d="M332.029 359.646C336.618 342.5 343.867 326.356 353.455 311.928L374.882 315.827V315.456L376.569 315.827H376.907L399.008 320.841C405.915 335.842 411.236 351.666 414.867 368.001C421.278 395.666 402.382 465.479 402.382 465.479C402.382 465.479 413.011 498.157 388.21 583.566H376.569C376.569 583.566 380.956 477.176 379.269 465.479C377.582 453.781 375.894 417.947 376.907 389.539C375.512 389.786 374.096 389.848 372.689 389.725C372.689 418.318 369.652 455.453 367.965 465.479C366.278 475.505 366.953 583.752 366.953 583.752L355.311 583.38C333.21 497.043 344.851 464.736 344.851 464.736C344.851 464.736 324.774 387.125 332.029 359.646Z" fill="#FF8B66"/>
<path d="M431.907 230.047C431.064 215.565 390.066 221.878 390.066 221.878C390.066 221.878 363.241 201.454 355.143 207.952C352.106 210.18 350.756 224.106 350.25 241.002C347.213 246.943 344.514 256.041 350.081 264.396C350.081 289.091 351.093 312.671 351.093 312.671C357.872 318.289 365.749 322.088 374.096 323.764C382.444 325.44 391.032 324.948 399.177 322.326C399.177 322.326 409.131 299.488 417.904 276.094C420.321 273.84 422.199 270.97 423.376 267.733C424.552 264.497 424.99 260.993 424.653 257.527C429.039 245.087 432.076 234.503 431.907 230.047Z" fill="#0E3944"/>
<path d="M426.677 156.15C414.699 133.684 384.667 136.469 374.207 151.137C361.722 168.776 368.471 209.995 368.471 209.995C368.471 209.995 397.152 183.629 414.361 219.65C414.361 219.65 440.006 181.216 426.677 156.15Z" fill="#FFB878"/>
<path d="M350.25 594.335C350.925 588.95 349.238 585.237 350.419 582.638C351.6 580.038 354.468 583.566 354.468 583.566C354.636 577.625 363.916 577.624 364.759 580.41L365.603 582.452C366.278 580.967 367.121 579.481 368.471 580.41C373.364 583.566 367.29 591.921 371.677 598.048C376.063 604.176 373.87 617.73 373.87 617.73H346.538C343.333 601.205 349.575 599.534 350.25 594.335Z" fill="#0E3944"/>
<path d="M367.121 592.293C367.121 592.293 360.71 588.579 352.106 593.592L353.793 590.065C355.717 588.915 357.843 588.237 360.027 588.077C362.211 587.917 364.401 588.278 366.446 589.136L367.121 592.293Z" fill="#205260"/>
<path d="M368.302 598.048C368.302 598.048 359.023 594.521 350.587 599.348L352.106 595.82C352.106 595.82 360.373 591.921 367.121 594.892L368.302 598.048Z" fill="#205260"/>
<path d="M393.947 594.335C393.272 588.95 395.128 585.237 393.778 582.638C392.428 580.038 389.729 583.566 389.729 583.566C389.56 577.625 380.45 577.624 379.437 580.41C379.226 581.123 378.943 581.808 378.594 582.452C378.088 580.967 377.075 579.481 375.894 580.41C371.002 583.566 377.075 591.921 372.52 598.048C367.965 604.176 370.327 617.73 370.327 617.73H397.658C400.864 601.205 394.79 599.534 393.947 594.335Z" fill="#0E3944"/>
<path d="M377.075 592.292C377.075 592.292 383.655 588.579 392.091 593.592L390.404 590.064C388.513 588.907 386.414 588.223 384.256 588.063C382.097 587.902 379.933 588.269 377.919 589.136L377.075 592.292Z" fill="#205260"/>
<path d="M376.063 598.048C381.91 596.043 388.225 596.507 393.778 599.348L392.091 595.82C392.091 595.82 383.993 591.921 377.075 594.892L376.063 598.048Z" fill="#205260"/>
<path d="M388.042 189.571C388.552 199.801 386.936 210.024 383.318 219.464C383.318 219.464 388.21 229.304 401.37 223.363C401.37 223.363 399.177 209.809 407.781 193.841C413.686 183.072 388.042 189.571 388.042 189.571Z" fill="#EF6E4B"/>
<path d="M417.061 182.144C417.061 182.144 423.303 177.316 422.797 184.186C422.291 191.056 415.205 194.027 414.361 191.242C413.518 188.457 417.061 182.144 417.061 182.144Z" fill="#FF8B66"/>
<path d="M380.112 174.903C380.112 174.903 375.894 168.033 374.038 174.717C372.183 181.401 377.919 186.786 379.606 184.558C381.293 182.33 380.112 174.903 380.112 174.903Z" fill="#FF8B66"/>
<path d="M394.453 206.653C406.094 209.066 414.024 202.011 418.241 176.945C420.435 163.948 415.88 154.85 402.72 152.065C389.56 149.28 382.812 156.336 380.618 169.147C376.063 196.255 382.305 204.239 394.453 206.653Z" fill="#FF8B66"/>
<path d="M382.98 178.987C382.869 179.697 382.995 180.428 383.337 181.043C383.678 181.658 384.211 182.115 384.836 182.33C385.446 182.603 386.125 182.622 386.747 182.383C387.368 182.143 387.889 181.662 388.21 181.03C388.548 179.916 387.704 178.43 386.355 177.688C385.745 177.414 385.065 177.395 384.444 177.635C383.822 177.874 383.302 178.355 382.98 178.987Z" fill="#DB614D"/>
<path d="M406.938 184.558C406.914 184.914 406.958 185.272 407.067 185.609C407.175 185.947 407.345 186.256 407.567 186.517C407.789 186.778 408.057 186.987 408.355 187.129C408.653 187.271 408.975 187.344 409.3 187.343C409.948 187.511 410.631 187.391 411.199 187.008C411.768 186.626 412.177 186.012 412.336 185.3C412.505 184.001 411.324 182.701 409.806 182.515C409.182 182.4 408.542 182.545 408.011 182.923C407.481 183.301 407.098 183.884 406.938 184.558Z" fill="#DB614D"/>
<path d="M390.235 166.919H391.079C392.507 166.014 394.178 165.686 395.803 165.99C396.14 166.176 396.477 165.99 396.477 165.619C396.536 165.446 396.534 165.255 396.472 165.083C396.41 164.911 396.291 164.772 396.14 164.691C394.168 164.284 392.13 164.68 390.404 165.805C390.323 165.838 390.251 165.893 390.196 165.965C390.14 166.038 390.102 166.124 390.085 166.217C390.068 166.31 390.073 166.406 390.099 166.497C390.125 166.587 390.172 166.668 390.235 166.733V166.919Z" fill="#FFB878"/>
<path d="M407.613 168.404H407.95C409.58 168.728 411.065 169.643 412.168 171.004C412.337 171.375 412.674 171.375 413.011 171.189C413.133 171.08 413.217 170.928 413.248 170.758C413.278 170.589 413.254 170.413 413.18 170.261C411.906 168.555 410.103 167.43 408.119 167.104C407.781 167.104 407.444 167.29 407.444 167.661C407.408 167.79 407.405 167.928 407.435 168.059C407.464 168.189 407.526 168.309 407.613 168.404Z" fill="#FFB878"/>
<path d="M390.404 173.974C390.235 175.645 390.572 177.131 391.416 177.316C392.26 177.502 393.103 176.202 393.272 174.717C393.441 173.232 393.103 171.561 392.428 171.375C391.753 171.189 390.741 172.489 390.404 173.974Z" fill="#1A4850"/>
<path d="M406.263 177.502C406.094 179.173 406.432 180.659 407.275 180.844C408.119 181.03 408.962 179.73 409.3 178.245C409.637 176.759 409.131 175.088 408.287 174.903C407.444 174.717 406.6 176.017 406.263 177.502Z" fill="#1A4850"/>
<path d="M401.876 192.356C401.876 192.356 394.453 191.984 391.079 189.199C391.079 189.199 392.26 195.512 396.309 195.698C397.436 195.831 398.572 195.582 399.567 194.985C400.562 194.387 401.368 193.47 401.876 192.356Z" fill="#1A4850"/>
<path d="M394.453 173.974C394.453 173.974 394.115 169.89 392.597 169.89C391.079 169.89 389.56 173.046 389.56 173.046L387.704 171.375L389.729 172.118C389.729 172.118 391.416 168.776 392.766 169.147C394.115 169.518 394.453 173.974 394.453 173.974Z" fill="#1A4850"/>
<path d="M405.757 176.945C405.757 176.945 407.444 173.232 408.794 173.789C410.143 174.346 410.649 177.873 410.649 177.873L413.011 177.131H410.818C410.818 177.131 410.312 173.417 408.962 173.046C407.613 172.675 405.757 176.945 405.757 176.945Z" fill="#1A4850"/>
<path d="M397.152 184.558C397.321 184.929 397.658 184.929 397.996 185.115L398.502 183.815C397.49 183.444 397.321 182.701 397.49 182.144C397.658 181.587 398.165 180.659 398.502 180.659C398.839 180.659 399.008 180.844 399.177 181.216L400.358 180.844C399.852 179.359 398.839 179.173 398.333 179.359C397.827 179.544 396.477 180.473 396.14 181.773C396.069 182.294 396.125 182.827 396.303 183.316C396.481 183.805 396.774 184.234 397.152 184.558Z" fill="#DB614D"/>
<path d="M379.437 179.359C379.437 179.359 374.545 163.762 383.318 150.951C392.091 138.14 415.88 147.795 420.266 157.635C424.653 167.476 416.048 187.157 416.048 187.157C416.048 187.157 422.628 160.977 409.468 156.521C409.468 156.521 407.781 163.205 397.49 167.847C387.198 172.489 381.462 171.746 381.462 171.746L379.437 179.359Z" fill="#FFB878"/>
<path d="M421.278 221.692C421.278 221.692 436.125 221.878 472.905 262.54C477.966 268.11 472.23 285.749 457.046 274.794C441.861 263.839 429.039 250.471 425.665 255.113C425.665 255.113 416.892 231.904 421.278 221.692Z" fill="#EF6E4B"/>
<path d="M475.098 260.126C474.929 246.758 465.313 212.78 457.721 198.854L451.141 202.196C451.141 202.196 458.395 240.259 457.383 253.256C456.371 266.253 460.251 274.794 468.181 276.836C476.11 278.879 475.098 262.911 475.098 260.126Z" fill="#FF8B66"/>
<path d="M445.742 182.515C450.466 191.242 444.898 197.183 451.141 202.196C457.383 207.21 458.733 200.897 458.733 200.897C460.255 194.856 462.586 189.099 465.65 183.815C467.675 180.287 465.65 180.659 465.65 180.659C465.65 180.659 466.156 180.102 466.325 179.916C466.494 179.73 469.53 176.388 467.506 176.202C465.481 176.017 460.251 181.958 460.251 181.958C465.313 171.561 468.181 171.746 466.156 171.375C464.132 171.004 457.721 179.173 457.552 179.359C459.745 172.675 462.276 169.89 460.251 170.075C458.227 170.261 453.165 181.773 451.478 186.043C451.186 186.564 450.96 187.126 450.803 187.714C447.26 180.287 445.742 182.515 445.742 182.515Z" fill="#FF8B66"/>
<path d="M451.478 186.043C451.187 186.564 450.96 187.126 450.803 187.714C451.649 188.419 452.312 189.356 452.727 190.431C453.141 191.506 453.292 192.682 453.165 193.841C453.782 192.535 453.951 191.028 453.641 189.596C453.331 188.164 452.564 186.903 451.478 186.043Z" fill="#EF6E4B"/>
<path d="M460.757 187.157C461.264 186.229 463.963 181.587 465.65 180.658C467.337 179.73 466.156 180.101 466.325 179.916C466.494 179.73 461.264 186.043 460.757 187.157Z" fill="#EF6E4B"/>
<path d="M360.204 206.653C360.204 206.653 345.357 203.31 301.829 234.689C295.755 238.959 298.117 257.527 315.157 250.471C332.197 243.416 347.888 232.647 350.419 238.031C350.419 238.031 362.397 217.607 360.204 206.653Z" fill="#EF6E4B"/>
<path d="M300.142 231.904C302.673 218.721 318.532 187.714 328.486 175.831L334.391 180.659C334.391 180.659 320.05 216.122 318.7 229.119C317.351 242.116 311.952 249.543 303.854 249.728C295.755 249.914 299.636 234.689 300.142 231.904Z" fill="#FF8B66"/>
<path d="M343.333 162.463C337.09 169.89 341.477 176.945 334.391 180.658C330.004 182.887 327.136 177.688 327.136 177.688C326.763 171.405 325.57 165.214 323.593 159.306C322.243 155.407 324.099 156.336 324.099 156.336L323.593 155.221C322.412 152.808 321.231 151.137 323.256 151.508C325.28 151.879 329.161 158.749 329.161 158.749C326.124 147.423 323.256 146.866 325.449 147.052C327.642 147.238 332.198 156.521 332.198 156.707C331.523 149.651 329.498 146.309 331.354 147.052C333.21 147.795 336.078 160.235 337.09 164.691C337.167 165.256 337.28 165.814 337.428 166.362C342.152 160.049 343.333 162.463 343.333 162.463Z" fill="#FF8B66"/>
<path d="M337.09 164.691C337.167 165.256 337.28 165.814 337.428 166.362C336.449 166.872 335.607 167.654 334.986 168.631C334.365 169.607 333.985 170.745 333.885 171.932C333.534 170.502 333.665 168.981 334.254 167.65C334.844 166.319 335.851 165.268 337.09 164.691Z" fill="#EF6E4B"/>
<path d="M327.642 163.577C327.473 162.648 325.618 157.45 324.099 156.336L323.593 155.222C325.618 154.85 327.473 162.463 327.642 163.577Z" fill="#EF6E4B"/>
<path d="M350.925 307.844C350.925 307.844 300.817 383.412 316.507 463.436C316.507 463.436 333.547 480.704 346.876 474.762C360.204 468.821 373.87 490.359 385.848 483.489C397.827 476.619 408.119 471.42 416.386 475.134C424.653 478.847 438.487 463.436 438.487 463.436C438.487 463.436 432.414 374.871 401.876 316.385C401.876 316.385 377.075 329.01 350.925 307.844Z" fill="#FFB878"/>
<path d="M371.676 598.048C373.447 600.893 374.662 604.111 375.243 607.499C375.823 610.887 375.758 614.371 375.051 617.73H370.327C369.786 611.132 370.242 604.482 371.676 598.048Z" fill="#07262D"/>
<path d="M209.036 392.696C209.036 392.696 218.147 424.445 240.417 466.964C240.417 466.964 236.705 512.082 300.142 595.635L308.915 590.25C308.915 590.25 276.184 506.327 270.954 481.447C265.724 456.567 267.918 423.331 250.877 371.343L209.036 392.696Z" fill="#FF8B66"/>
<path d="M247.672 328.825L217.641 315.456C212.411 333.838 198.914 347.02 200.095 375.799C200.601 389.91 209.036 404.579 209.036 404.579C244.466 403.279 256.445 386.94 256.445 386.94L251.046 359.46C251.046 359.46 247.503 340.893 247.672 328.825Z" fill="#CE364C"/>
<path d="M176.475 371.529C176.475 371.529 175.462 404.764 183.729 453.039C183.729 453.039 166.521 494.072 200.938 596.192L210.724 594.335C210.724 594.335 205.493 503.17 208.024 477.919C210.555 452.667 223.883 430.016 222.534 366.701L176.475 371.529Z" fill="#FF8B66"/>
<path d="M247.672 328.824L235.862 351.105L232.994 356.304L226.751 367.816L222.871 398.451V400.494C192.502 396.78 176.306 407.178 176.306 407.178L175.968 404.207V403.279C175.968 403.093 175.969 403.093 175.8 402.907C173.1 393.624 169.051 368.93 173.775 352.219C181.536 324.74 195.371 327.339 205.831 311.928L247.672 328.824Z" fill="#F24052"/>
<path d="M194.864 586.722C194.864 586.722 198.745 596.192 197.564 602.69C196.383 609.189 193.009 611.417 196.045 617.73H219.834C220.573 615.403 220.695 612.894 220.187 610.494C219.68 608.095 218.562 605.903 216.966 604.175C213.929 600.648 211.567 583.937 211.567 583.937C211.255 583.913 210.942 583.977 210.657 584.122C210.373 584.267 210.127 584.489 209.942 584.767C209.756 585.045 209.638 585.37 209.598 585.712C209.558 586.054 209.597 586.401 209.711 586.722C209.711 586.722 209.711 578.924 203.806 579.853C197.901 580.781 198.239 588.022 198.239 588.022C198.114 587.675 197.923 587.361 197.679 587.102C197.434 586.844 197.142 586.646 196.822 586.522C196.502 586.399 196.161 586.353 195.823 586.388C195.486 586.422 195.159 586.536 194.864 586.722Z" fill="#0C476B"/>
<path d="M337.259 617.73H297.274C297.274 617.73 296.261 608.26 297.949 605.29C299.636 602.319 291.706 590.807 291.706 590.807C291.706 590.807 297.105 583.38 301.829 587.651C301.829 587.651 301.323 578.553 307.228 578.553C307.228 578.553 312.795 593.964 319.038 599.534L319.544 599.905C324.268 603.619 332.704 604.547 336.078 609.746C336.821 610.886 337.314 612.2 337.519 613.585C337.724 614.97 337.635 616.389 337.259 617.73Z" fill="#0C476B"/>
<path d="M224.558 399.008L224.052 400.308L222.702 399.937C197.564 392.324 180.355 401.236 175.631 404.207V403.279C175.631 403.093 175.631 403.093 175.462 402.907C179.309 400.509 183.461 398.757 187.778 397.709C186.654 384.428 186.711 371.058 187.947 357.789C189.972 336.437 209.036 323.44 209.205 323.44L209.88 324.554C209.711 324.74 196.383 333.838 190.984 349.248C208.699 349.063 215.616 324.74 215.785 324.554L216.966 324.925C216.797 325.297 209.543 350.734 190.815 350.734H190.647C189.787 353.041 189.275 355.487 189.128 357.975C187.829 371.057 187.829 384.255 189.128 397.337C200.339 394.589 211.997 394.972 223.04 398.451L224.558 399.008Z" fill="#CE364C"/>
<path d="M237.38 335.137C237.38 335.323 235.693 354.262 227.764 368.744L228.776 369.487C236.874 354.819 238.561 335.509 238.73 335.323L237.38 335.137Z" fill="#CE364C"/>
<path d="M291.875 326.596C291.875 326.596 288.838 342.007 285.801 343.121C282.764 344.235 285.295 335.137 285.295 335.137C285.295 335.137 263.362 325.482 254.42 324.74C245.479 323.997 258.132 305.244 291.875 326.596Z" fill="#0C476B"/>
<path d="M287.994 329.382C287.994 329.382 265.049 317.87 249.022 318.798C232.994 319.727 271.123 261.24 280.74 267.182C290.356 273.123 292.212 321.955 287.994 329.382Z" fill="#0C476B"/>
<path d="M230.8 217.236C230.8 217.236 233.162 210.737 244.466 209.623C255.77 208.509 266.062 221.506 263.868 229.304C261.675 237.103 230.8 217.236 230.8 217.236Z" fill="#0C476B"/>
<path d="M249.022 161.906C249.022 161.906 248.178 145.567 234.344 142.967C220.509 140.368 209.543 144.267 214.435 165.99C219.328 187.714 216.122 196.441 207.012 197.555C197.901 198.669 198.576 186.786 198.576 186.786C198.112 189.892 198.674 193.078 200.159 195.769C201.644 198.459 203.956 200.476 206.674 201.454C206.674 201.454 196.214 202.382 199.926 209.623C203.638 216.865 215.279 215.75 219.834 209.623C219.834 209.623 220.172 214.451 225.908 212.78C225.167 212.487 224.542 211.919 224.141 211.173C223.741 210.427 223.59 209.55 223.715 208.695C223.883 205.539 239.574 210.923 244.466 190.685C249.359 170.447 239.574 166.919 239.574 166.919L249.022 161.906Z" fill="#0E3944"/>
<path d="M275.341 226.334C266.905 225.962 266.568 235.06 270.786 243.973C275.004 252.885 316.17 293.547 322.412 285.934C324.943 282.964 317.857 269.41 317.857 269.41C308.379 259.98 299.421 249.936 291.031 239.331C284.114 230.604 279.559 226.519 275.341 226.334Z" fill="#FF8B66"/>
<path d="M327.98 271.266C330.342 258.084 326.967 222.806 321.906 207.395L314.82 209.252C314.82 209.252 315.326 248.243 311.952 260.683C308.578 273.123 310.771 282.407 318.194 286.12C325.618 289.833 327.474 274.051 327.98 271.266Z" fill="#FF8B66"/>
<path d="M306.722 198.854C314.314 204.61 311.614 212.594 319.375 214.265C320.653 214.534 321.977 214.269 323.087 213.522C323.959 212.807 324.628 211.834 325.016 210.716C325.404 209.599 325.496 208.382 325.28 207.21C324.725 201.783 324.668 196.309 325.111 190.87C325.618 186.6 324.099 187.9 324.099 187.9C324.099 187.9 324.268 187.157 324.268 186.786C324.268 186.414 325.786 182.144 323.93 182.887C322.075 183.629 319.713 191.613 319.713 191.613C320.219 179.73 322.75 178.616 320.894 179.173C319.038 179.73 316.338 190.128 316.17 190.499C315.495 183.444 316.676 179.73 314.989 180.844C313.302 181.958 313.302 194.77 313.302 199.411V201.268C307.228 196.255 306.722 198.854 306.722 198.854Z" fill="#FF8B66"/>
<path d="M313.302 199.411V201.268C314.365 201.465 315.356 201.987 316.161 202.775C316.967 203.563 317.555 204.585 317.857 205.724C317.92 204.244 317.493 202.788 316.655 201.627C315.818 200.467 314.626 199.679 313.302 199.411Z" fill="#EF6E4B"/>
<path d="M322.075 196.069C322.243 194.955 322.918 189.385 324.099 187.9C325.28 186.414 324.268 187.157 324.268 186.786C324.268 186.414 322.075 194.77 322.075 196.069Z" fill="#EF6E4B"/>
<path d="M263.025 225.777C263.025 225.777 274.329 220.578 288.332 229.676C297.108 235.838 304.632 243.929 310.433 253.442C310.433 253.442 310.602 226.148 314.82 221.692C314.82 221.692 320.05 228.376 326.461 229.676C326.461 229.676 343.164 267.553 332.535 290.947C321.906 314.342 290.863 290.947 290.863 290.947L263.025 225.777Z" fill="#0C476B"/>
<path d="M205.325 311.928C205.325 311.928 213.592 287.791 209.374 274.051C202.119 250.657 206 230.79 213.76 224.848C226.077 215.379 252.058 226.148 252.058 226.148C252.058 226.148 277.197 223.177 279.727 231.718C282.258 240.259 288.332 274.237 276.353 292.433C264.375 310.629 247.672 338.851 247.672 338.851C247.672 338.851 212.073 335.137 205.325 311.928Z" fill="#CFD8DC"/>
<path d="M219.834 326.596C219.834 326.596 216.291 339.593 211.905 338.851C207.518 338.108 188.285 326.596 188.285 324.74C188.285 322.883 190.984 318.798 190.984 318.798C190.984 318.798 189.972 308.772 192.334 307.844C194.696 306.915 219.834 326.596 219.834 326.596Z" fill="#0C476B"/>
<path d="M260.325 221.692C260.325 221.692 286.645 271.823 285.295 335.137C285.295 335.137 297.274 331.795 299.467 308.029C301.66 284.263 294.068 238.959 283.608 227.076C283.608 227.076 276.016 218.536 260.325 221.692Z" fill="#105E99"/>
<path d="M238.055 219.464C238.055 219.464 257.626 296.703 219.834 326.596C209.426 325.45 199.732 320.248 192.502 311.928C181.199 298.374 196.552 224.848 196.552 224.848C196.552 224.848 216.797 210.18 238.055 219.464Z" fill="#105E99"/>
<path d="M242.104 243.601C242.104 243.601 241.936 220.392 239.574 214.451C237.212 208.509 230.8 217.236 230.8 217.236C230.8 217.236 232.656 228.005 242.104 243.601Z" fill="#0C476B"/>
<path d="M268.761 241.373C268.761 241.373 271.123 218.536 264.037 214.636C256.951 210.737 256.782 224.848 256.782 224.848C256.782 224.848 263.025 224.106 268.761 241.373Z" fill="#0C476B"/>
<path d="M248.178 194.584C248.178 194.584 249.865 210.366 244.466 224.663C244.466 224.663 252.058 237.103 259.313 228.933C260.299 218.109 263.284 207.62 268.086 198.112C273.485 187.157 248.178 194.584 248.178 194.584Z" fill="#EF6E4B"/>
<path d="M236.537 195.141C236.537 195.141 230.126 190.685 230.969 197.555C231.813 204.425 238.73 207.024 239.574 204.239C240.417 201.454 236.537 195.141 236.537 195.141Z" fill="#FF8B66"/>
<path d="M273.148 186.6C273.148 186.6 277.197 179.544 279.221 186.043C281.246 192.542 275.847 198.297 273.991 196.255C272.135 194.213 273.148 186.6 273.148 186.6Z" fill="#FF8B66"/>
<path d="M259.988 218.907C248.347 221.692 240.248 215.008 235.187 190.128C232.488 177.131 236.874 167.847 249.865 164.691C262.856 161.534 269.773 168.033 272.473 180.844C277.872 207.767 271.967 215.936 259.988 218.907Z" fill="#FF8B66"/>
<path d="M270.448 190.685C270.551 191.026 270.588 191.387 270.557 191.744C270.526 192.102 270.429 192.449 270.27 192.763C270.112 193.077 269.896 193.351 269.636 193.569C269.376 193.786 269.078 193.942 268.761 194.027C268.197 194.376 267.534 194.474 266.906 194.302C266.279 194.129 265.735 193.699 265.387 193.098C265.221 192.385 265.301 191.629 265.613 190.977C265.925 190.325 266.445 189.824 267.074 189.571C267.664 189.281 268.33 189.234 268.949 189.439C269.568 189.643 270.1 190.085 270.448 190.685Z" fill="#DB614D"/>
<path d="M246.828 197.369C246.83 198.077 246.586 198.758 246.148 199.275C245.709 199.793 245.108 200.107 244.466 200.154C242.948 200.34 241.598 199.597 241.429 198.297C241.261 196.998 242.273 195.698 243.791 195.327C244.437 195.204 245.1 195.343 245.659 195.719C246.218 196.095 246.633 196.681 246.828 197.369Z" fill="#DB614D"/>
<path d="M262.35 179.173H262.013C260.578 178.284 258.892 178.019 257.289 178.43C257.131 178.495 256.957 178.493 256.801 178.424C256.645 178.356 256.518 178.225 256.445 178.059C256.445 177.688 256.614 177.316 256.951 177.316C257.904 177.012 258.902 176.921 259.888 177.049C260.873 177.176 261.825 177.52 262.687 178.059C263.025 178.245 263.025 178.616 262.856 178.987L262.35 179.173Z" fill="#0E3944"/>
<path d="M240.586 184.558H240.248C239.911 184.372 239.911 184.001 240.08 183.629C241.286 181.861 243.017 180.613 244.972 180.101C245.31 180.101 245.647 180.287 245.647 180.659C245.647 181.03 245.479 181.401 245.141 181.401C243.515 181.834 242.081 182.887 241.092 184.372L240.586 184.558Z" fill="#0E3944"/>
<path d="M262.856 186.043C263.194 187.714 262.856 189.199 262.013 189.385C261.169 189.571 260.325 188.457 259.988 186.786C259.651 185.115 259.988 183.815 260.832 183.629C261.675 183.444 262.519 184.558 262.856 186.043Z" fill="#1A4850"/>
<path d="M246.828 190.128C247.166 191.613 246.66 193.099 245.985 193.284C245.31 193.47 244.298 192.356 243.96 190.685C243.623 189.014 243.96 187.714 244.804 187.528C245.647 187.343 246.491 188.457 246.828 190.128Z" fill="#1A4850"/>
<path d="M252.396 204.424C256.335 204.426 260.195 203.203 263.531 200.897C263.531 200.897 264.881 210.366 258.976 211.109C253.071 211.851 252.396 204.424 252.396 204.424Z" fill="#1A4850"/>
<path d="M258.807 186.229C258.807 186.229 259.144 182.144 260.494 181.958C261.844 181.773 263.7 185.115 263.7 185.115L265.556 183.444L263.531 184.186C263.531 184.186 261.675 181.03 260.325 181.216C258.976 181.401 258.807 186.229 258.807 186.229Z" fill="#1A4850"/>
<path d="M247.672 189.571C247.672 189.571 245.816 185.857 244.466 186.414C243.117 186.971 242.779 190.685 242.779 190.685L240.417 189.942H242.61C242.61 189.942 242.948 186.229 244.298 185.857C245.647 185.486 247.672 189.571 247.672 189.571Z" fill="#1A4850"/>
<path d="M255.77 197.555L255.095 196.255C256.108 195.698 256.276 194.955 256.108 194.398C256.072 194.067 255.936 193.759 255.722 193.523C255.507 193.287 255.227 193.138 254.927 193.098L254.42 193.655L253.239 193.284C253.746 191.613 254.758 191.613 255.095 191.613C255.685 191.743 256.223 192.074 256.632 192.56C257.042 193.045 257.303 193.659 257.377 194.316C257.452 194.973 257.337 195.64 257.048 196.221C256.76 196.802 256.313 197.269 255.77 197.555Z" fill="#DB614D"/>
<path d="M237.549 199.597C236.532 195.338 235.855 190.989 235.525 186.6C235.176 182.165 236.204 177.73 238.441 174.02C240.678 170.311 243.991 167.546 247.841 166.176C250.849 165.203 253.991 164.826 257.12 165.062C259.674 165.35 262.112 166.378 264.187 168.041C266.262 169.705 267.898 171.944 268.93 174.531C271.232 179.999 272.985 185.727 274.16 191.613C275.445 185.449 275.503 179.051 274.329 172.86C272.304 161.349 263.868 151.879 244.129 156.521C227.089 160.606 219.834 183.072 237.549 199.597Z" fill="#1A4850"/>
<path d="M262.181 162.277C262.181 162.277 259.988 180.101 238.055 182.33C238.055 182.33 251.384 177.131 251.384 166.733C251.384 166.733 246.153 179.916 233.5 178.43C233.5 178.43 232.319 157.264 262.181 162.277Z" fill="#1A4850"/>
<path d="M195.371 230.604C206.168 233.946 213.254 253.07 211.061 255.298C208.868 257.527 158.422 268.11 158.422 268.11L189.128 316.756L183.898 325.111C183.898 325.111 135.983 278.507 136.321 262.54C136.658 246.572 195.371 230.604 195.371 230.604Z" fill="#FF8B66"/>
<path d="M189.297 315.456C192.923 315.867 196.527 316.486 200.095 317.313C204.312 318.427 209.88 319.727 210.049 320.655C210.217 321.583 200.769 320.655 200.769 320.655C200.769 320.655 208.53 324.183 208.699 325.482C208.868 326.782 198.914 324.554 198.914 324.554C198.914 324.554 205.156 328.639 204.819 329.939C204.481 331.238 196.72 328.082 196.72 328.082C197.484 330.168 198.445 332.159 199.588 334.023C199.588 334.023 198.239 334.952 195.033 331.238C191.828 327.525 187.272 328.824 183.392 325.482C179.511 322.14 185.754 314.899 189.297 315.456Z" fill="#FF8B66"/>
<path d="M196.552 224.848C196.552 224.848 215.279 227.262 216.122 257.712C216.966 288.162 175.125 278.322 175.125 278.322C175.125 278.322 185.248 291.319 182.211 305.801C182.211 305.801 170.738 305.616 171.076 311.928C171.076 311.928 153.529 313.228 136.321 286.863C119.112 260.497 143.238 231.347 196.552 224.848Z" fill="#0C476B"/>
<path d="M291.706 253.999C292.887 258.455 291.875 262.725 289.513 263.654C287.151 264.582 284.114 261.426 282.933 256.97C281.752 252.513 282.596 248.243 284.958 247.315C287.32 246.386 290.356 249.543 291.706 253.999Z" fill="#0C476B"/>
<path d="M237.931 259.854C238.142 254.732 235.22 250.425 231.403 250.235C227.587 250.044 224.322 254.041 224.111 259.163C223.899 264.285 226.822 268.592 230.638 268.783C234.454 268.973 237.719 264.976 237.931 259.854Z" fill="#0C476B"/>
<path d="M174.956 246.943C170.57 248.057 166.183 245.644 165.339 241.559C164.496 237.474 167.364 233.018 171.919 231.904C176.475 230.79 180.861 233.389 181.705 237.474C182.548 241.559 179.511 245.829 174.956 246.943Z" fill="#105E99"/>
<path d="M197.058 608.075C197.058 608.075 203.469 598.791 216.797 606.218C216.797 606.218 217.303 612.716 211.061 611.417C204.819 610.117 201.276 615.13 197.058 608.075Z" fill="#105E99"/>
<path d="M336.078 609.746C327.642 614.202 310.096 603.619 310.096 603.619C312.795 604.176 317.013 601.576 319.544 599.905C324.268 603.619 332.704 604.547 336.078 609.746Z" fill="#105E99"/>
</g>
<defs>
<clipPath id="clip0_27_1542">
<rect width="728" height="622" fill="white"/>
</clipPath>
</defs>
</svg>
